<svg width="19" height="19" viewBox="0 0 19 19" fill="none" xmlns="http://www.w3.org/2000/svg">
<path id="Vector" d="M13.711 11.0784C13.711 11.8697 13.9361 12.1852 14.5248 12.1852C15.837 12.1852 16.6725 10.5133 16.6725 7.73258C16.6725 3.48244 13.5753 1.4478 9.70859 1.4478C5.73067 1.4478 2.11259 4.11544 2.11259 9.15683C2.11259 13.9722 5.27759 16.5946 10.1381 16.5946C11.7884 16.5946 12.8962 16.4137 14.5908 15.8485L14.9544 17.3623C13.2815 17.9058 11.4936 18.0631 10.1155 18.0631C3.7403 18.0631 0.325684 14.559 0.325684 9.15589C0.325684 3.70757 4.28288 0 9.7312 0C15.4056 0 18.4114 3.39107 18.4114 7.55078C18.4114 11.0775 17.3046 13.7677 13.8231 13.7677C12.2396 13.7677 11.2007 13.1347 11.065 11.7322C10.6581 13.2921 9.57294 13.7677 8.10254 13.7677C6.13572 13.7677 4.4854 12.2521 4.4854 9.20111C4.4854 6.12653 5.9332 4.22754 8.53302 4.22754C9.91205 4.22754 10.7711 4.77011 11.1536 5.62918L11.8101 4.431L13.7091 4.431L13.7091 11.0784H13.711ZM10.9313 8.0943C10.9313 6.85185 10.0034 6.33094 9.23478 6.33094C8.39832 6.33094 7.47236 7.00821 7.47236 8.99858C7.47236 10.5811 8.17319 11.4628 9.23478 11.4628C9.98081 11.4628 10.9313 10.988 10.9313 9.6768V8.0943Z" fill="#575DFB"/>
</svg>
