<svg width="20" height="17" viewBox="0 0 20 17" fill="none" xmlns="http://www.w3.org/2000/svg">
<g id="symbol">
<path id="Shape Copy" fill-rule="evenodd" clip-rule="evenodd" d="M15.9767 9.73761C15.5232 9.73761 15.1603 9.3748 15.1603 8.92128C15.1603 8.46777 15.5232 8.10496 15.9767 8.10496C16.4302 8.10496 16.793 8.46777 16.793 8.92128C16.793 9.35212 16.4302 9.73761 15.9767 9.73761ZM11.9534 9.73761C11.4998 9.73761 11.137 9.3748 11.137 8.92128C11.137 8.46777 11.4998 8.10496 11.9534 8.10496C12.4069 8.10496 12.7697 8.46777 12.7697 8.92128C12.7697 9.35212 12.4069 9.73761 11.9534 9.73761ZM17.9236 14.3198C19.1962 13.4038 19.9999 12.0409 19.9999 10.5441C19.9999 7.77371 17.3208 5.53955 13.9941 5.53955C10.6675 5.53955 7.98828 7.77371 7.98828 10.5441C7.98828 13.3144 10.6675 15.5486 13.9941 15.5486C14.6862 15.5486 15.3337 15.4592 15.9588 15.2805C16.0035 15.2581 16.0705 15.2581 16.1375 15.2581C16.2491 15.2581 16.3607 15.3028 16.45 15.3475L17.7673 16.1071C17.8119 16.1295 17.8343 16.1518 17.8789 16.1518C17.9906 16.1518 18.0799 16.0624 18.0799 15.9507C18.0799 15.906 18.0575 15.8614 18.0575 15.7943C18.0575 15.772 17.8789 15.1688 17.7896 14.789C17.7673 14.7443 17.7673 14.6996 17.7673 14.6549C17.745 14.4985 17.8119 14.3868 17.9236 14.3198Z" fill="#4D4D4D"/>
<path id="Shape Copy 2" fill-rule="evenodd" clip-rule="evenodd" d="M9.56268 5.01458C9.04197 5.01458 8.62974 4.60235 8.62974 4.08163C8.62974 3.56092 9.04197 3.14869 9.56268 3.14869C10.0834 3.14869 10.4956 3.56092 10.4956 4.08163C10.4956 4.58065 10.0834 5.01458 9.56268 5.01458ZM4.78134 5.01458C4.26063 5.01458 3.8484 4.60235 3.8484 4.08163C3.8484 3.56092 4.26063 3.14869 4.78134 3.14869C5.30205 3.14869 5.71429 3.56092 5.71429 4.08163C5.71429 4.58065 5.30205 5.01458 4.78134 5.01458ZM7.22796 0C3.24475 0 0 2.67608 0 5.99887C0 7.80523 0.962236 9.43318 2.50629 10.5259C2.61818 10.6151 2.70769 10.7489 2.70769 10.9273C2.70769 10.9719 2.68531 11.0388 2.68531 11.0834C2.57342 11.5294 2.37202 12.2654 2.34965 12.2877C2.32727 12.3546 2.30489 12.3992 2.30489 12.4661C2.30489 12.5999 2.41678 12.7114 2.55104 12.7114C2.5958 12.7114 2.64055 12.6891 2.68531 12.6668L4.27412 11.7524C4.386 11.6855 4.52027 11.6409 4.65453 11.6409C4.72167 11.6409 4.7888 11.6409 4.85593 11.6632C5.59439 11.8639 6.39999 11.9977 7.20558 11.9977C7.33984 11.9977 7.47411 11.9977 7.60837 11.9977C7.45173 11.5294 7.36222 11.0388 7.36222 10.5259C7.36222 7.51532 10.3161 5.06225 13.9412 5.06225C14.0755 5.06225 14.2098 5.06225 14.344 5.06225C13.8293 2.18546 10.8307 0 7.22796 0Z" fill="#4D4D4D"/>
</g>
</svg>
